<?xml version="1.0" encoding="utf-8"?>
<!-- Generator: Adobe Illustrator 27.9.4, SVG Export Plug-In . SVG Version: 9.03 Build 54784)  -->
<svg version="1.1" xmlns="http://www.w3.org/2000/svg" xmlns:xlink="http://www.w3.org/1999/xlink" x="0px" y="0px"
	 viewBox="0 0 28.35 28.35" style="enable-background:new 0 0 28.35 28.35;" xml:space="preserve">
<style type="text/css">
	.st0{display:none;}
	.st1{display:inline;}
	.st2{fill:#FFFFFF;}
	.st3{fill:#D8D8D8;}
	.st4{fill:#61B7D9;}
	.st5{fill:#FDD35C;}
	.st6{fill:#595757;}
	.st7{fill:#ED6D46;}
	.st8{display:inline;fill:#61B7D9;}
	.st9{display:inline;fill:#FDD35C;}
</style>
<g id="レイヤー_2" class="st0">
	<g class="st1">
		<circle class="st2" cx="14.17" cy="14.17" r="10.32"/>
		<path class="st3" d="M14.17,4.86c5.14,0,9.32,4.18,9.32,9.32s-4.18,9.32-9.32,9.32s-9.32-4.18-9.32-9.32S9.04,4.86,14.17,4.86
			 M14.17,3.86c-5.7,0-10.32,4.62-10.32,10.32s4.62,10.32,10.32,10.32s10.32-4.62,10.32-10.32S19.87,3.86,14.17,3.86L14.17,3.86z"/>
	</g>
</g>
<g id="小_00000158015538855251313320000011418930059240340627_" class="st0">
	<g class="st1">
		<circle class="st4" cx="14.17" cy="14.17" r="10.32"/>
		<g>
			<path class="st2" d="M11.41,12.16l1.06,0.17c-0.1,0.44-0.22,0.89-0.36,1.37c-0.14,0.48-0.31,0.94-0.51,1.37
				c-0.19,0.44-0.42,0.82-0.67,1.14c-0.08-0.05-0.17-0.11-0.28-0.17s-0.22-0.12-0.33-0.18c-0.11-0.06-0.21-0.1-0.3-0.14
				c0.24-0.3,0.46-0.66,0.64-1.07s0.33-0.83,0.46-1.27C11.25,12.96,11.34,12.55,11.41,12.16z M13.69,10.15h1.02v6.83
				c0,0.3-0.04,0.52-0.12,0.67c-0.08,0.15-0.21,0.26-0.4,0.34c-0.19,0.08-0.44,0.13-0.73,0.15c-0.3,0.02-0.65,0.03-1.07,0.03
				c-0.02-0.09-0.05-0.19-0.09-0.31c-0.04-0.12-0.09-0.24-0.14-0.36c-0.05-0.12-0.1-0.22-0.16-0.31c0.2,0.01,0.4,0.02,0.6,0.02
				c0.19,0,0.37,0,0.51,0c0.15,0,0.25,0,0.32,0c0.09,0,0.16-0.02,0.2-0.05c0.04-0.03,0.06-0.1,0.06-0.18V10.15z M15.8,12.42
				l0.91-0.34c0.25,0.41,0.49,0.84,0.72,1.31c0.23,0.47,0.43,0.93,0.6,1.38c0.17,0.45,0.3,0.86,0.37,1.22l-1.02,0.4
				c-0.06-0.35-0.17-0.76-0.33-1.21c-0.16-0.45-0.34-0.92-0.56-1.4C16.25,13.29,16.03,12.84,15.8,12.42z"/>
		</g>
	</g>
</g>
<g id="中_00000023995495279371621280000003328047886817954973_" class="st0">
	<g class="st1">
		<circle class="st5" cx="14.17" cy="14.17" r="10.32"/>
		<g>
			<path class="st6" d="M10.6,11.55h7.16v4.3h-0.98v-3.38h-5.24v3.42H10.6V11.55z M11.08,14.47h6.25v0.92h-6.25V14.47z M13.66,10.03
				h0.99v8.14h-0.99V10.03z"/>
		</g>
	</g>
</g>
<g id="大_00000169531850411929140450000009486667079092959664_" class="st0">
	<g class="st1">
		<circle class="st7" cx="14.17" cy="14.17" r="10.32"/>
		<g>
			<path class="st2" d="M13.5,9.98h1.27c-0.01,0.46-0.02,0.94-0.04,1.44c-0.02,0.5-0.07,1-0.13,1.51c-0.07,0.51-0.18,1.01-0.34,1.5
				c-0.15,0.5-0.37,0.97-0.65,1.43c-0.28,0.46-0.63,0.88-1.06,1.27c-0.43,0.39-0.95,0.74-1.57,1.05c-0.09-0.16-0.21-0.34-0.38-0.52
				c-0.16-0.18-0.33-0.34-0.5-0.47c0.59-0.27,1.08-0.57,1.48-0.92c0.4-0.34,0.72-0.72,0.96-1.12c0.24-0.4,0.43-0.82,0.56-1.26
				c0.13-0.44,0.22-0.88,0.27-1.33c0.05-0.45,0.08-0.89,0.09-1.33C13.49,10.81,13.5,10.39,13.5,9.98z M10.29,12.28h7.79v1.2h-7.79
				V12.28z M14.83,12.76c0.17,0.66,0.41,1.27,0.72,1.83c0.3,0.56,0.68,1.06,1.13,1.49c0.45,0.43,0.99,0.76,1.61,1.01
				c-0.09,0.08-0.2,0.19-0.31,0.32c-0.11,0.13-0.22,0.26-0.31,0.4c-0.1,0.14-0.18,0.26-0.24,0.38c-0.67-0.32-1.25-0.73-1.73-1.23
				c-0.48-0.5-0.88-1.07-1.2-1.73c-0.32-0.66-0.6-1.39-0.82-2.2L14.83,12.76z"/>
		</g>
	</g>
</g>
<g id="特大_00000091701184376689872030000003763143384773237136_" class="st0">
	<g class="st1">
		<polygon class="st7" points="27.35,14.17 22.99,17.04 24.83,21.92 19.62,21.67 18.24,26.7 14.17,23.44 10.1,26.7 8.73,21.67 
			3.52,21.92 5.36,17.04 1,14.17 5.36,11.31 3.52,6.43 8.73,6.67 10.1,1.64 14.17,4.9 18.24,1.64 19.62,6.67 24.83,6.43 
			22.99,11.31 		"/>
		<g>
			<path class="st2" d="M10.4,10.41l0.96,0.17c-0.03,0.38-0.08,0.77-0.14,1.16c-0.06,0.39-0.13,0.75-0.2,1.09
				c-0.08,0.34-0.17,0.65-0.28,0.91c-0.06-0.05-0.14-0.1-0.24-0.17c-0.1-0.07-0.2-0.13-0.31-0.2c-0.1-0.07-0.19-0.12-0.27-0.15
				c0.09-0.23,0.17-0.5,0.23-0.8c0.06-0.3,0.11-0.63,0.15-0.97C10.35,11.1,10.38,10.75,10.4,10.41z M10.02,14.59
				c0.29-0.07,0.62-0.15,0.99-0.24c0.37-0.09,0.75-0.19,1.16-0.31s0.81-0.23,1.21-0.34l0.15,1.02c-0.55,0.17-1.11,0.34-1.68,0.51
				c-0.57,0.17-1.09,0.32-1.55,0.46L10.02,14.59z M10.69,11.58h2.62v1.1h-2.84L10.69,11.58z M11.57,9.97h1.06v8.24h-1.06V9.97z
				 M13.15,12.38h5.13v1.06h-5.13V12.38z M13.35,14.16h4.83v1.06h-4.83V14.16z M13.62,15.68l0.85-0.53
				c0.13,0.12,0.26,0.26,0.38,0.41c0.13,0.15,0.25,0.31,0.37,0.46c0.12,0.15,0.21,0.29,0.27,0.41l-0.91,0.6
				c-0.06-0.13-0.15-0.27-0.25-0.43c-0.1-0.16-0.22-0.32-0.35-0.48C13.87,15.96,13.75,15.81,13.62,15.68z M13.68,10.69h4.23v1.05
				h-4.23V10.69z M16.21,13.34h1.15v3.59c0,0.28-0.03,0.51-0.1,0.67c-0.06,0.16-0.19,0.29-0.38,0.38c-0.19,0.08-0.41,0.14-0.66,0.16
				c-0.25,0.03-0.55,0.04-0.88,0.04c-0.02-0.17-0.06-0.37-0.13-0.59c-0.07-0.22-0.14-0.41-0.21-0.56c0.2,0.01,0.4,0.01,0.61,0.01
				c0.21,0,0.34,0,0.41,0c0.07,0,0.12-0.01,0.14-0.03c0.03-0.02,0.04-0.06,0.04-0.12V13.34z M15.18,9.96h1.15v3.02h-1.15V9.96z"/>
		</g>
	</g>
</g>
<g id="なし" class="st0">
	<g class="st1">
		<path class="st2" d="M24.84,20.94c0,2.15-1.76,3.9-3.9,3.9H7.41c-2.15,0-3.9-1.76-3.9-3.9V7.41c0-2.15,1.76-3.9,3.9-3.9h13.53
			c2.15,0,3.9,1.76,3.9,3.9V20.94z"/>
		<path class="st3" d="M20.94,4.5c1.6,0,2.9,1.3,2.9,2.9v13.53c0,1.6-1.3,2.9-2.9,2.9H7.41c-1.6,0-2.9-1.3-2.9-2.9V7.41
			c0-1.6,1.3-2.9,2.9-2.9H20.94 M20.94,3.5H7.41c-2.15,0-3.9,1.76-3.9,3.9v13.53c0,2.15,1.76,3.9,3.9,3.9h13.53
			c2.15,0,3.9-1.76,3.9-3.9V7.41C24.84,5.26,23.08,3.5,20.94,3.5L20.94,3.5z"/>
	</g>
</g>
<g id="小" class="st0">
	<path class="st8" d="M24.84,20.94c0,2.15-1.76,3.9-3.9,3.9H7.41c-2.15,0-3.9-1.76-3.9-3.9V7.41c0-2.15,1.76-3.9,3.9-3.9h13.53
		c2.15,0,3.9,1.76,3.9,3.9V20.94z"/>
</g>
<g id="中" class="st0">
	<path class="st9" d="M24.84,20.94c0,2.15-1.76,3.9-3.9,3.9H7.41c-2.15,0-3.9-1.76-3.9-3.9V7.41c0-2.15,1.76-3.9,3.9-3.9h13.53
		c2.15,0,3.9,1.76,3.9,3.9V20.94z"/>
</g>
<g id="大">
	<path class="st7" d="M24.84,20.94c0,2.15-1.76,3.9-3.9,3.9H7.41c-2.15,0-3.9-1.76-3.9-3.9V7.41c0-2.15,1.76-3.9,3.9-3.9h13.53
		c2.15,0,3.9,1.76,3.9,3.9V20.94z"/>
</g>
<g id="特大" class="st0">
	<g class="st1">
		<path class="st7" d="M24.84,20.94c0,2.15-1.76,3.9-3.9,3.9H7.41c-2.15,0-3.9-1.76-3.9-3.9V7.41c0-2.15,1.76-3.9,3.9-3.9h13.53
			c2.15,0,3.9,1.76,3.9,3.9V20.94z"/>
		<polygon class="st2" points="21.36,14.17 18.99,15.74 19.99,18.4 17.15,18.27 16.4,21.01 14.17,19.23 11.95,21.01 11.2,18.27 
			8.36,18.4 9.36,15.74 6.98,14.17 9.36,12.61 8.36,9.95 11.2,10.08 11.95,7.33 14.17,9.11 16.4,7.33 17.15,10.08 19.99,9.95 
			18.99,12.61 		"/>
	</g>
</g>
</svg>
